<?xml version="1.0" encoding="UTF-8"?>
<svg id="Layer_1" xmlns="http://www.w3.org/2000/svg" version="1.1" viewBox="0 0 582 305">
  <!-- Generator: Adobe Illustrator 29.1.0, SVG Export Plug-In . SVG Version: 2.1.0 Build 142)  -->
  <defs>
    <style>
      .st0 {
        fill: #231f20;
      }
    </style>
  </defs>
  <path class="st0" d="M20.55,296.4c-.23,0-.79.68-1.47.76l-.39-1.49c13.52-6.52,38.69-17.37,45.69-31.16,4.43-8.74,5.88-24.69,6.32-34.52,2.18-49.33-1.08-100.49.74-150.02-.99-12.88-1.33-24.98-6.82-36.98C53.81,19.33,30,12.15,8.3,1.67c-1.05-1.07.07-1.35,1.09-1.47,4.43-.56,8.56.67,12.61.78,44.38,1.14,88.91-1.22,133.3.33l79.8,183.75c7.08-11.42,14.05-22.93,19.8-35.13,15.62-33.11,31.56-71.56,44.97-105.74,3.58-9.14,6.83-18.42,10.25-27.62l-.4-2.26c-8.05,23.69-18.14,46.55-28.22,69.4-1.05,1.19-.78-.72-.58-1.31,2.93-9.26,8.37-19.54,12.07-28.77,7.17-17.9,12.47-37.17,23.9-52.57l106.77-.11c58,4.39,125.56,32.69,142.85,93.22,5.37,18.77,6.33,38.82,5.27,58.21l1.47-7.42c.55,8.59.98,16.15-.09,24.77-9.2,74.4-60.63,122.37-135.4,126.67-50.92,2.93-105.22-1.19-156.67-.03-1.42.03-2.68.55-4.05.78-.41-1.97.5-1.28,1.46-1.85,11.58-6.82,32.08-14.47,38.28-27.08,3.8-7.73,4.49-22.78,4.83-31.54,1.78-45.88-1.42-92.89,0-138.9l-1.14-9.99c-3.16,4.97-5.53,10.48-7.93,15.82-23.24,51.68-43.69,104.63-67.3,156.17-4.89,10.67-9.85,22.68-15.32,32.94-.68,1.29-3.56,6.81-4.84,5.9-.22-1.66-.97-2.62-2.63-2.95-5.37-1.05-20.55,1.65-24.06-1.17l-42.5-91.89-58.51-137.1,89.06,216.42c.17,2.15-.89.63-1.37-.13-8.47-13.54-14.68-28.54-21.77-42.81L97.38,84.08l-.72,58.31c-2.04,27.93-2.8,55.82-.76,83.85,1.92,26.38,4.45,43.64,27.36,59.49l18.66,10.67H20.55ZM146.38,4.65h-30.44v.74h30.44v-.74ZM365.75,4.65h-44.91v1.48c.3.35.95-.74,1.12-.74h42.31c.82,0,3.19,1.5,4.82.73v-.73c-1.25.42-2.55-.66-3.34-.75h0ZM418.1,4.65h-43.05v.74h43.05v-.74ZM103.33,8.36h-51.97v.74h51.97v-.74ZM320.09,9.1c-1.85-.49-2.04,1.76-2.56,2.99-1.33,3.17-2.55,7.01-3.36,10.37l5.93-13.36ZM487.87,62.55c-2.75-6.18-8.54-12.68-13.75-17.05-12.77-10.74-39.17-21.57-55.75-22.95-7.3-.6-14.5,1.25-21.81.65.28,1.35,1.46,1.38,2.58,1.5,4.15.47,9.07-.33,13.38-.02,30.73,2.21,55.75,14.1,75.35,37.86h0ZM402.5,29.88v242.76c18.97,6.03,39.17,5.08,57.9-1.13.73-.24,2.39-1.01,2.23.38-18.68,8.7-39.01,6.1-59.05,5.98-1.5,0-2.86-.7-4.34-.71-.64,0-4.71.48-4.9,1.41h10.4v.74h-17.08c-.17,1.31,1.68.71,2.59.74,9.88.41,19.83.33,29.71.74.91.03,2.76-.57,2.59.74h-37.86c-.17,1.31,1.68.71,2.59.74,2.35.1,4.72-.08,7.07,0l-.75,1.47c5.07.08,10.17-.07,15.25-.02,24.63.22,54.74-.83,71.6-21.89,16.05-20.04,17.88-64.72,18.6-89.78,1.29-44.91-.17-99.56-41.06-127.52-16.71-11.43-35.55-14.09-55.48-14.68h0ZM226.55,292.7l98-233.11-18.68,38.1c-25.42,56.61-47.24,115.02-73.98,171.01-1.9,3.98-6.37,14.47-8.69,17.29-.63.76-1.11,1.44-2.22,1.49-3.52-.93-15.73,1.3-17.96.23-2.67-1.27-2.13-3.55-2.25-5.94l-5.37-9.12,5.88,17.5c8.69.64,16.88-.38,25.28,2.55h-.01ZM492.32,252.6c6.41-14.86,10.69-30.29,12.62-46.41,4.13-34.42,6.14-89.08-7.52-120.9-2.04-4.76-4.97-10.53-8.05-14.58,6.19,13.11,9.97,26.12,11.78,40.56,3.32,26.57,3.09,66.6.83,93.44-1.17,13.93-3.62,28.39-8.14,41.59-.54,1.55-3.35,5.3-1.52,6.29h0ZM92.93,152.38v-24.5h-.74v24.5h.74ZM89.21,174.65v-46.03h-.74v46.03h.74ZM91.45,156.09v-20.79h-.74v20.79h.74ZM569.53,182.81l2.22-17.81-2.95,15.23.72,2.58h.01ZM328.26,255.57v-65.33h-.74v65.33h.74ZM91.44,225.14l.38-34.15c-1.37,10.34-1.54,21.09-1.12,31.56.03.9-.56,2.76.73,2.59h.01ZM111.49,279.32c-9.95-10-16.03-20.38-17.73-34.61-1.44-12.05-.34-24.21-.83-36.29-.03-.9.56-2.76-.73-2.59,1.19,21.35-4.64,50.06,11.14,67.17l8.16,6.3h-.01ZM247.33,231.07l8.17-20.04-8.56,17.78.39,2.25h0ZM330.5,261.89c.47-5.11-.34-10.79,0-15.96h-.74v15.22c0,.99-1.56,3.8-.73,5.56h.73c-.68-1.76.65-3.68.75-4.82h-.01Z"/>
  <path class="st0" d="M258.48,305.31l10.75-5.21c58.17-1.93,118.04,2.62,176,.06,105.69-4.67,152.35-101.82,129.89-197.52-6.49-27.67-21.16-47.83-43.43-64.95.78-1.24,1.62.32,2.22.74,28.26,19.8,42.93,49.15,46.76,83.16,11.09,98.21-37,179.42-141.38,183.76l-180.81-.05h0Z"/>
  <path class="st0" d="M159,305.32H.13c3.12-2.36,7.65-4.64,11.47-5.23l137.39.02,10.01,5.21Z"/>
</svg>